<?xml version="1.0" encoding="UTF-8"?>
<!DOCTYPE svg PUBLIC "-//W3C//DTD SVG 1.1//EN" "http://www.w3.org/Graphics/SVG/1.1/DTD/svg11.dtd">
<!-- Creator: CorelDRAW -->
<svg xmlns="http://www.w3.org/2000/svg" xml:space="preserve" width="2048px" height="2048px" style="shape-rendering:geometricPrecision; text-rendering:geometricPrecision; image-rendering:optimizeQuality; fill-rule:evenodd; clip-rule:evenodd"
viewBox="0 0 2048 2048"
 xmlns:xlink="http://www.w3.org/1999/xlink">
 <defs>
  <style type="text/css">
   .fil0 {fill:#66BB6A}
    .fil2 {fill:#FFFFFE}
    .fil1 {fill:#FFFFFE;fill-rule:nonzero}
  </style>
 </defs>
 <g id="Layer_x0020_1">
  <metadata id="CorelCorpID_0Corel-Layer"/>
  <circle class="fil0" cx="1024" cy="1024" r="1024"/>
  <g id="_294343752">
   <path id="_294344568" class="fil1" d="M1016.74 1029.2l0 -87.3922c-27.2788,-7.83544 -47.2937,-19.5874 -60.0426,-35.3988 -12.678,-15.8126 -19.089,-34.9713 -19.089,-57.4784 0,-22.7917 7.19528,-41.9516 21.5811,-57.4784 14.4602,-15.5268 33.6189,-24.4299 57.5504,-26.8524l0 -20.6551 30.1996 0 0 20.6551c22.1504,2.70709 39.7429,10.1858 52.8485,22.65 13.0335,12.4642 21.3673,29.1307 24.9992,49.9996l-52.7776 6.90827c-3.20433,-16.4528 -11.5382,-27.5634 -25.0701,-33.404l0 81.5528c33.404,9.04489 56.1957,20.7969 68.2323,35.1851 12.1099,14.387 18.163,32.8347 18.163,55.4126 0,25.1421 -7.62166,46.3678 -22.7917,63.6036 -15.2421,17.3079 -36.4677,27.8492 -63.6036,31.767l0 39.0307 -30.1996 0 0 -38.0339c-24.0744,-2.92087 -43.6607,-11.8949 -58.689,-26.9232 -15.0284,-14.9575 -24.5729,-36.1819 -28.7752,-63.6036l54.4867 -5.84056c2.20866,11.1106 6.41103,20.726 12.5362,28.7752 6.05315,8.04804 12.8917,13.8886 20.4414,17.5205zm0 -219.088c-8.26182,2.77795 -14.7437,7.54961 -19.6583,14.1744 -4.8437,6.69449 -7.26497,14.1024 -7.26497,22.1504 0,7.33583 2.20748,14.2453 6.62363,20.5134 4.48701,6.33898 11.2536,11.4673 20.2996,15.3839l0 -72.2221zm30.1996 222.008c10.4693,-1.92284 18.9449,-6.76654 25.4977,-14.4591 6.55276,-7.76339 9.82914,-16.8083 9.82914,-27.2788 0,-9.33072 -2.77795,-17.3079 -8.26182,-24.0744 -5.48386,-6.76654 -14.5299,-11.9658 -27.065,-15.5268l0 81.339z"/>
   <polygon id="_294343536" class="fil1" points="822.414,1179.77 995.426,1179.77 995.426,1214.78 822.414,1214.78 "/>
   <polygon id="_294343992" class="fil1" points="822.413,1239.81 1187.35,1239.81 1187.35,1274.81 822.413,1274.81 "/>
   <path id="_294343944" class="fil2" d="M753.618 623.558l540.763 0c12.887,0 23.3351,10.448 23.3351,23.3351l0 698.486c0,12.887 -10.448,23.3351 -23.3351,23.3351l-540.763 0c-12.887,0 -23.3351,-10.448 -23.3351,-23.3351l0 -698.486c0,-12.887 10.448,-23.3351 23.3351,-23.3351zm635.275 885.881l0 -936.224 -0.0011811 -0.253937c-0.0011811,-0.705119 -0.0318898,-1.41732 -0.0968505,-2.13307l-0.0885827 0.00826772c-5.05276,-54.7122 -102.91,-87.4784 -226.226,-100.045 -59.2406,-6.03662 -124.942,-8.04095 -188.391,-6.04252 -63.8398,2.0126 -125.326,8.04213 -175.682,18.0567 -82.7942,16.4646 -139.302,46.0689 -139.302,90.156l0 936.478c0,40.004 98.1674,62.8217 223.82,70.4552 45.0697,2.7378 93.3426,4.1067 141.073,4.1067 47.7296,0 96.0024,-1.3689 141.073,-4.1067 125.652,-7.63347 223.82,-30.4512 223.82,-70.4552zm-372.579 -114.184c14.9374,0 28.4622,6.05552 38.2536,15.8469 9.78898,9.78898 15.8457,23.315 15.8457,38.2524 0,14.9362 -6.0567,28.4622 -15.8457,38.2524 -9.79135,9.79017 -23.3173,15.8469 -38.2536,15.8469 -14.9362,0 -28.4622,-6.0567 -38.2524,-15.8469 -9.79017,-9.79017 -15.8457,-23.3162 -15.8457,-38.2524 0,-14.9374 6.05552,-28.4634 15.8457,-38.2524 9.79017,-9.79135 23.315,-15.8469 38.2524,-15.8469zm-54.5646 -835.079l124.5 0c6.44292,0 11.6681,5.22402 11.6681,11.6669 0,6.4441 -5.2252,11.6681 -11.6681,11.6681l-124.5 0c-6.44292,0 -11.6681,-5.22402 -11.6681,-11.6681 0,-6.44292 5.2252,-11.6669 11.6681,-11.6669zm-77.8087 -16.8319c6.27284,0 11.9764,2.56299 16.1268,6.7063l0.0188977 -0.0177165c14.5665,14.9646 3.69095,38.9776 -16.1457,38.9776 -6.27284,0 -11.9776,-2.56299 -16.1268,-6.70512l-0.0188977 0.0165354c-8.98701,-9.2315 -8.87009,-23.4166 0.0011811,-32.289 4.11142,-4.1126 9.94607,-6.68859 16.1445,-6.68859z"/>
  </g>
 </g>
</svg>
