<?xml version="1.0" encoding="utf-8"?>
<!-- Generator: Adobe Illustrator 16.0.0, SVG Export Plug-In . SVG Version: 6.00 Build 0)  -->
<!DOCTYPE svg PUBLIC "-//W3C//DTD SVG 1.1//EN" "http://www.w3.org/Graphics/SVG/1.1/DTD/svg11.dtd">
<svg version="1.1" id="Insurance" xmlns="http://www.w3.org/2000/svg" xmlns:xlink="http://www.w3.org/1999/xlink" x="0px" y="0px"
	 width="512px" height="512px" viewBox="0 0 512 512" enable-background="new 0 0 512 512" xml:space="preserve">
<circle id="Background_9_" fill="#2D4851" cx="256" cy="256" r="256"/>
<path id="Shadow_9_" opacity="0.1" d="M301.86,507.897c113.27-20.487,200.608-115.492,209.407-232.416L401.927,169.899L307.75,145.5
	l-38.308-38.02L190,130.5l-52,54l-61,56L71,265L301.86,507.897z"/>
<g id="Insurance_1_">
	<rect x="251.787" y="172.065" fill="#B8BBBC" width="8.426" height="203.417"/>
	<path fill="#44BACA" d="M233.294,409.021c-15.692,0-28.459-12.542-28.459-27.957v-5.805c0-3.435,2.784-6.22,6.22-6.22
		s6.222,2.785,6.222,6.22v5.805c0,8.555,7.186,15.515,16.018,15.515c8.833,0,16.02-6.96,16.02-15.515v-26.63
		c0-3.436,2.784-6.221,6.22-6.221s6.221,2.785,6.221,6.221v26.63C261.754,396.479,248.987,409.021,233.294,409.021z"/>
	<ellipse fill="#44BACA" cx="255.959" cy="131.333" rx="6.412" ry="39.801"/>
	<path fill="#44BACA" d="M132.001,233.217c31.511,0,57.529,13.787,61.479,31.635h1.041c3.95-17.849,29.969-31.635,61.479-31.635
		s57.529,13.787,61.479,31.635h1.041c3.95-17.849,29.97-31.635,61.48-31.635s57.529,13.787,61.479,31.635h0.521
		c0-79.244-83.274-161.77-185.999-161.77S70.001,185.608,70.001,264.853h0.521C74.471,247.004,100.489,233.217,132.001,233.217z"/>
	<path fill="#E6E7E8" d="M255.957,102.979c-30.712,0-56.359,79.854-62.489,161.095c0.003,0.016,0.009,0.03,0.012,0.046h1.041
		c3.95-17.85,29.969-31.636,61.479-31.636s57.529,13.787,61.479,31.636h0.973C312.327,182.856,286.677,102.979,255.957,102.979z"/>
</g>
</svg>
