<svg xmlns="http://www.w3.org/2000/svg" xmlns:xlink="http://www.w3.org/1999/xlink" id="Group_105131" data-name="Group 105131" width="128.398" height="72.549" viewBox="0 0 128.398 72.549"><defs><clipPath id="clip-path"><rect id="Rectangle_44570" data-name="Rectangle 44570" width="128.398" height="72.549" fill="none" stroke="#fff" stroke-width="0.5"></rect></clipPath></defs><g id="Group_105128" data-name="Group 105128"><g id="Group_105127" data-name="Group 105127" clip-path="url(#clip-path)"><path id="Path_75374" data-name="Path 75374" d="M353.059,135.049l8.592,3.2v6.26" transform="translate(-233.592 -89.352)" fill="none" stroke="#fff" stroke-linecap="round" stroke-linejoin="round" stroke-width="0.5"></path></g></g><line id="Line_709" data-name="Line 709" x2="3.118" y2="1.161" transform="translate(113.77 43.577)" fill="none" stroke="#fff" stroke-linecap="round" stroke-linejoin="round" stroke-width="0.5"></line><g id="Group_105130" data-name="Group 105130"><g id="Group_105129" data-name="Group 105129" clip-path="url(#clip-path)"><path id="Path_75375" data-name="Path 75375" d="M135.76,153.638c3.949,1.672,8.656,4.52,11.493,9.189" transform="translate(-89.822 -101.65)" fill="none" stroke="#fff" stroke-linecap="round" stroke-linejoin="round" stroke-width="0.5"></path><path id="Path_75376" data-name="Path 75376" d="M115.2,147.315a30.317,30.317,0,0,1,3.943,1.019" transform="translate(-76.222 -97.467)" fill="none" stroke="#fff" stroke-linecap="round" stroke-linejoin="round" stroke-width="0.5"></path><line id="Line_710" data-name="Line 710" y2="10.344" transform="translate(11.879 10.952)" fill="none" stroke="#fff" stroke-linecap="round" stroke-linejoin="round" stroke-width="0.5"></line><line id="Line_711" data-name="Line 711" y2="23.899" transform="translate(19.237 45.471)" fill="none" stroke="#fff" stroke-linecap="round" stroke-linejoin="round" stroke-width="0.5"></line><rect id="Rectangle_44571" data-name="Rectangle 44571" width="2.432" height="26.739" transform="translate(0.338 45.472)" fill="none" stroke="#fff" stroke-linecap="round" stroke-linejoin="round" stroke-width="0.5"></rect><rect id="Rectangle_44572" data-name="Rectangle 44572" width="2.432" height="41.702" transform="translate(2.771 30.509)" fill="none" stroke="#fff" stroke-linecap="round" stroke-linejoin="round" stroke-width="0.5"></rect><rect id="Rectangle_44573" data-name="Rectangle 44573" width="2.432" height="50.915" transform="translate(5.203 21.296)" fill="none" stroke="#fff" stroke-linecap="round" stroke-linejoin="round" stroke-width="0.5"></rect><rect id="Rectangle_44574" data-name="Rectangle 44574" width="2.432" height="61.258" transform="translate(7.635 10.952)" fill="none" stroke="#fff" stroke-linecap="round" stroke-linejoin="round" stroke-width="0.5"></rect><rect id="Rectangle_44575" data-name="Rectangle 44575" width="2.432" height="48.704" transform="translate(10.068 23.507)" fill="none" stroke="#fff" stroke-linecap="round" stroke-linejoin="round" stroke-width="0.5"></rect><rect id="Rectangle_44576" data-name="Rectangle 44576" width="2.432" height="36.984" transform="translate(12.5 35.226)" fill="none" stroke="#fff" stroke-linecap="round" stroke-linejoin="round" stroke-width="0.5"></rect><rect id="Rectangle_44577" data-name="Rectangle 44577" width="2.432" height="24.159" transform="translate(14.932 48.051)" fill="none" stroke="#fff" stroke-linecap="round" stroke-linejoin="round" stroke-width="0.5"></rect><line id="Line_712" data-name="Line 712" y2="16.51" transform="translate(7.635 0.338)" fill="none" stroke="#fff" stroke-linecap="round" stroke-linejoin="round" stroke-width="0.5"></line><rect id="Rectangle_44578" data-name="Rectangle 44578" width="1.432" height="15.076" transform="translate(102.146 54.81)" fill="none" stroke="#fff" stroke-linecap="round" stroke-linejoin="round" stroke-width="0.5"></rect><rect id="Rectangle_44579" data-name="Rectangle 44579" width="1.432" height="15.076" transform="translate(106.216 54.81)" fill="none" stroke="#fff" stroke-linecap="round" stroke-linejoin="round" stroke-width="0.5"></rect><rect id="Rectangle_44580" data-name="Rectangle 44580" width="1.432" height="15.076" transform="translate(110.287 54.81)" fill="none" stroke="#fff" stroke-linecap="round" stroke-linejoin="round" stroke-width="0.5"></rect><rect id="Rectangle_44581" data-name="Rectangle 44581" width="25.407" height="0.716" transform="translate(100.265 69.885)" fill="none" stroke="#fff" stroke-linecap="round" stroke-linejoin="round" stroke-width="0.5"></rect><rect id="Rectangle_44582" data-name="Rectangle 44582" width="25.407" height="2.274" transform="translate(100.265 51.694)" fill="none" stroke="#fff" stroke-linecap="round" stroke-linejoin="round" stroke-width="0.5"></rect><path id="Path_75377" data-name="Path 75377" d="M321,140.091v1.232H294.085v-1.232l13.457-4.621Z" transform="translate(-194.573 -89.63)" fill="none" stroke="#fff" stroke-linecap="round" stroke-linejoin="round" stroke-width="0.5"></path><path id="Path_75378" data-name="Path 75378" d="M326.361,142.154v.718H310.678v-.718l7.842-2.693Z" transform="translate(-205.551 -92.27)" fill="none" stroke="#fff" stroke-linecap="round" stroke-linejoin="round" stroke-width="0.5"></path><rect id="Rectangle_44583" data-name="Rectangle 44583" width="25.407" height="0.842" transform="translate(100.265 53.968)" fill="none" stroke="#fff" stroke-linecap="round" stroke-linejoin="round" stroke-width="0.5"></rect><rect id="Rectangle_44584" data-name="Rectangle 44584" width="4.569" height="1.427" transform="translate(110.739 49.175)" fill="none" stroke="#fff" stroke-linecap="round" stroke-linejoin="round" stroke-width="0.5"></rect><rect id="Rectangle_44585" data-name="Rectangle 44585" width="27.429" height="0.773" transform="translate(99.254 70.601)" fill="none" stroke="#fff" stroke-linecap="round" stroke-linejoin="round" stroke-width="0.5"></rect><rect id="Rectangle_44586" data-name="Rectangle 44586" width="30.183" height="0.773" transform="translate(97.876 71.374)" fill="none" stroke="#fff" stroke-linecap="round" stroke-linejoin="round" stroke-width="0.5"></rect><rect id="Rectangle_44587" data-name="Rectangle 44587" width="1.432" height="15.076" transform="translate(114.358 54.81)" fill="none" stroke="#fff" stroke-linecap="round" stroke-linejoin="round" stroke-width="0.5"></rect><rect id="Rectangle_44588" data-name="Rectangle 44588" width="1.432" height="15.076" transform="translate(118.429 54.81)" fill="none" stroke="#fff" stroke-linecap="round" stroke-linejoin="round" stroke-width="0.5"></rect><rect id="Rectangle_44589" data-name="Rectangle 44589" width="1.432" height="15.076" transform="translate(122.499 54.81)" fill="none" stroke="#fff" stroke-linecap="round" stroke-linejoin="round" stroke-width="0.5"></rect><path id="Path_75379" data-name="Path 75379" d="M128.978,165.638a28.661,28.661,0,0,0-20.839-12s5.834,10.008,8.4,18.378Z" transform="translate(-71.547 -101.65)" fill="none" stroke="#fff" stroke-linecap="round" stroke-linejoin="round" stroke-width="0.5"></path><path id="Path_75380" data-name="Path 75380" d="M96.682,163.582l-3.688-.913,1.453,5.011a8.335,8.335,0,0,1,.273,3.289l-.573,4.895,1.537.641.641-1.025,5.124.9.962,1.629,4.1-.015a81.643,81.643,0,0,0-5.106-12.046A12.088,12.088,0,0,0,96.682,163.582Z" transform="translate(-61.527 -107.625)" fill="none" stroke="#fff" stroke-linecap="round" stroke-linejoin="round" stroke-width="0.5"></path><path id="Path_75381" data-name="Path 75381" d="M81.422,173.191l-.23-.794a29.371,29.371,0,0,0-7.885-1.4l1.537,8.327,6.278,2.05.573-4.894A8.336,8.336,0,0,0,81.422,173.191Z" transform="translate(-48.502 -113.136)" fill="none" stroke="#fff" stroke-linecap="round" stroke-linejoin="round" stroke-width="0.5"></path><path id="Path_75382" data-name="Path 75382" d="M69.978,187.469l-.768-4.163a26.525,26.525,0,0,0-3.258.98l1.635,3.226h2.522Z" transform="translate(-43.635 -121.279)" fill="none" stroke="#fff" stroke-linecap="round" stroke-linejoin="round" stroke-width="0.5"></path><path id="Path_75383" data-name="Path 75383" d="M179.467,179.368l-1.924,4.149h-1.881l-5.936-6.394s3.886-6,13.622-6.125l-2.137,4.607" transform="translate(-112.295 -113.136)" fill="none" stroke="#fff" stroke-linecap="round" stroke-linejoin="round" stroke-width="0.5"></path><path id="Path_75384" data-name="Path 75384" d="M152.37,198l5.873,3.383,4.526-1.519" transform="translate(-100.811 -130.999)" fill="none" stroke="#fff" stroke-linecap="round" stroke-linejoin="round" stroke-width="0.5"></path><line id="Line_713" data-name="Line 713" y2="6.394" transform="translate(57.431 63.987)" fill="none" stroke="#fff" stroke-linecap="round" stroke-linejoin="round" stroke-width="0.5"></line><path id="Path_75385" data-name="Path 75385" d="M69.2,195.734l-.811,1.44,3.334,4.539h49.192l-1.665-1.83H86.13" transform="translate(-45.245 -129.502)" fill="none" stroke="#fff" stroke-linecap="round" stroke-linejoin="round" stroke-width="0.5"></path><path id="Path_75386" data-name="Path 75386" d="M192.826,183.827l4.524,7.315h1.281v-2.126L202.6,190l.641,2.989h.9s8.84-8.2,12.427-9.16c0,0-9.48-2.883-16.526,0C200.041,183.827,195.475,182.61,192.826,183.827Z" transform="translate(-127.578 -120.776)" fill="none" stroke="#fff" stroke-linecap="round" stroke-linejoin="round" stroke-width="0.5"></path><path id="Path_75387" data-name="Path 75387" d="M214.148,186.332a23.9,23.9,0,0,1,2.562,6.171" transform="translate(-141.685 -123.281)" fill="none" stroke="#fff" stroke-linecap="round" stroke-linejoin="round" stroke-width="0.5"></path><path id="Path_75388" data-name="Path 75388" d="M233.366,195.734v2.007l5.324,3.971H226.263" transform="translate(-149.701 -129.502)" fill="none" stroke="#fff" stroke-linecap="round" stroke-linejoin="round" stroke-width="0.5"></path><path id="Path_75389" data-name="Path 75389" d="M257.855,200.423a1.816,1.816,0,0,1-1.485-1.643,1.815,1.815,0,0,1-2.492-.023,1.815,1.815,0,0,0-1.4,0,2.074,2.074,0,0,0-2.3-1.095,2.653,2.653,0,0,0-2.366-.781,2.7,2.7,0,0,0-.411-.415l-.153,1.761,5.324,3.972h6.39A1.821,1.821,0,0,0,257.855,200.423Z" transform="translate(-163.589 -129.984)" fill="none" stroke="#fff" stroke-linecap="round" stroke-linejoin="round" stroke-width="0.5"></path></g></g></svg>